<svg width="40" height="56" viewBox="0 0 40 56" fill="none" xmlns="http://www.w3.org/2000/svg">
<g clip-path="url(#clip0_2046_464)">
<path d="M27.515 39.2173L26.9387 38.641C26.8662 38.5683 26.8254 38.4698 26.8255 38.3671V37.7419C26.8255 37.635 26.7389 37.5484 26.6319 37.5484H26.3387C26.2526 37.5484 26.1766 37.6055 26.1529 37.6877L25.9497 38.3879C25.938 38.4281 25.9135 38.4635 25.88 38.4886C25.8465 38.5137 25.8058 38.5273 25.7639 38.5273H25.58C25.5418 38.5273 25.5044 38.516 25.4727 38.4948C25.4409 38.4736 25.4161 38.4435 25.4015 38.4082L25.1426 37.7865C25.1132 37.7158 25.0636 37.6555 24.9999 37.613C24.9363 37.5706 24.8615 37.5479 24.785 37.5479H24.2C24.1197 37.5479 24.0408 37.5731 23.9755 37.6195L22.8282 38.4368C22.7444 38.4967 22.6535 38.5463 22.5577 38.5844L20.6542 39.346C20.5823 39.3747 20.5207 39.4243 20.4773 39.4884C20.4339 39.5525 20.4108 39.6281 20.4108 39.7055V40.1995C20.4108 40.3021 20.4515 40.4008 20.524 40.4734L21.1003 41.0497C21.2455 41.1948 21.4424 41.2766 21.6476 41.2766H22.1479C22.2113 41.2766 22.2742 41.2689 22.3356 41.2534L23.3648 40.996C23.8061 40.8856 24.2731 41.0148 24.5948 41.3366L25.2244 41.9661C25.3695 42.1113 25.5665 42.1931 25.7716 42.1931H26.5052C26.7103 42.1931 26.9073 42.1113 27.0524 41.9661L27.5155 41.5031C27.6606 41.3579 27.7424 41.161 27.7424 40.9558V39.7645C27.7419 39.5594 27.6602 39.3624 27.515 39.2173ZM20 24C13.3729 24 8 29.3724 8 36C8 42.6276 13.3729 48 20 48C26.6271 48 32 42.6276 32 36C32 29.3724 26.6271 24 20 24ZM20 45.6774C15.1918 45.6774 11.2032 42.1495 10.4585 37.5484H13.4861C13.6913 37.5484 13.8882 37.4666 14.0334 37.3215L14.9755 36.3798C15.1623 36.1931 15.4773 36.2444 15.5953 36.4805L16.6898 38.669C16.821 38.9313 17.089 39.0973 17.3823 39.0973H17.6774C18.1052 39.0973 18.4516 38.7508 18.4516 38.3231V37.8697C18.4516 37.6645 18.3698 37.4676 18.2247 37.3224L17.9508 37.0485C17.7998 36.8976 17.7998 36.6523 17.9508 36.5013L18.2247 36.2274C18.3698 36.0823 18.5668 36.0005 18.7719 36.0005H18.7869C19.0589 36.0005 19.311 35.8577 19.4508 35.6245L20.2913 34.2237C20.3784 34.0785 20.5913 34.0868 20.6668 34.2382C20.6989 34.3025 20.7483 34.3565 20.8094 34.3943C20.8705 34.4321 20.9409 34.4521 21.0127 34.4521H21.1613C21.3752 34.4521 21.5484 34.2789 21.5484 34.065V30.2855C21.5484 29.9923 21.3829 29.7242 21.1206 29.5931L20.5966 29.3313C20.331 29.1982 20.3077 28.8281 20.555 28.6631L22.9821 26.7987C26.8627 28.0587 29.6774 31.7047 29.6774 36C29.6774 41.3361 25.3361 45.6774 20 45.6774Z" fill="#231F20"/>
</g>
<defs>
<clipPath id="clip0_2046_464">
<rect width="24" height="24" fill="white" transform="translate(8 24)"/>
</clipPath>
</defs>
</svg>
