<svg width="40" height="56" viewBox="0 0 40 56" fill="none" xmlns="http://www.w3.org/2000/svg">
<path d="M24.2 38.25C22.8547 38.25 22.2078 39 20 39C17.7922 39 17.15 38.25 15.8 38.25C12.3219 38.25 9.5 41.0719 9.5 44.55V45.75C9.5 46.9922 10.5078 48 11.75 48H28.25C29.4922 48 30.5 46.9922 30.5 45.75V44.55C30.5 41.0719 27.6781 38.25 24.2 38.25ZM28.25 45.75H11.75V44.55C11.75 42.3187 13.5687 40.5 15.8 40.5C16.4844 40.5 17.5953 41.25 20 41.25C22.4234 41.25 23.5109 40.5 24.2 40.5C26.4313 40.5 28.25 42.3187 28.25 44.55V45.75ZM20 37.5C23.7266 37.5 26.75 34.4766 26.75 30.75C26.75 27.0234 23.7266 24 20 24C16.2734 24 13.25 27.0234 13.25 30.75C13.25 34.4766 16.2734 37.5 20 37.5ZM20 26.25C22.4797 26.25 24.5 28.2703 24.5 30.75C24.5 33.2297 22.4797 35.25 20 35.25C17.5203 35.25 15.5 33.2297 15.5 30.75C15.5 28.2703 17.5203 26.25 20 26.25Z" fill="#231F20"/>
</svg>
